# xmcd
#
# Track frame offsets: 
#        182
#        25405
#        65310
#        89255
#        116385
#
# Disc length: 3041 seconds
#
# Revision: 4
# Processed by: cddbd v1.5.2PL0 Copyright (c) Steve Scherf et al.
# Submitted via: ExactAudioCopy v0.99pb3
#
DISCID=360bdf05
DTITLE=Egberto Gismonti - Sol Do Meio Dia
DYEAR=1977
DGENRE=Jazz
TTITLE0=Palácio de Pinturas (Construçao da Aldeia)
TTITLE1=Raga (Festa da Construção)
TTITLE2=Kalimba (Lua Cheia)
TTITLE3=Coração (Saudade)
TTITLE4=Café (Procissão do Espirito) - Sapain (Sol do Meio Dia) - Dança 
TTITLE4=Solitária No. 2 (Voz do Espirito) - Baião Malandro (Fogo na Mat
TTITLE4=a /
EXTD=YEAR: 1977
EXTT0=
EXTT1=
EXTT2=
EXTT3=
EXTT4=
PLAYORDER=
